# xmcd
#
# Track frame offsets:
#	150
#	14512
#	27095
#	40482
#	53845
#	72152
#	85927
#	102307
#	120210
#	132667
#	142737
#	154242
#
# Disc length: 2203 seconds
#
# Revision: 2
# Processed by: cddbd v1.5PL3 Copyright (c) Steve Scherf et al.
# Submitted via: dBpowerAMP V4.0
#
DISCID=9c08990c
DTITLE=Jackson 5 - Diana Ross Presents
DYEAR=1969
DGENRE=R&B
TTITLE0=Zip-A-Dee-Doo-Dah
TTITLE1=Nobody
TTITLE2=I Want You Back
TTITLE3=Can You Remember
TTITLE4=Standing In The Shadows Of Love
TTITLE5=You've Changed
TTITLE6=My Cherie Amour
TTITLE7=Who's Lovin' You
TTITLE8=Chained
TTITLE9=(I Know) I'm Losing You
TTITLE10=Stand
TTITLE11=Born To Love You
EXTD=
EXTT0=
EXTT1=
EXTT2=
EXTT3=
EXTT4=
EXTT5=
EXTT6=
EXTT7=
EXTT8=
EXTT9=
EXTT10=
EXTT11=
PLAYORDER=
